<svg width="20" height="20" fill="none" xmlns="http://www.w3.org/2000/svg"><g id="Frame 40"><g id="Group 2" stroke="#506071" stroke-width=".8"><path id="Rectangle 2" d="M8.47 4.592H6.94a1.02 1.02 0 000 2.04h2.04m-.51-2.04l.327-.608c.238-.443.7-.719 1.203-.719v0c.503 0 .965.276 1.204.719l.327.608m-3.061 0h3.06m0 0h1.532a1.02 1.02 0 110 2.04H11.02m-2.041 0v1.633h-.816v.972a3.897 3.897 0 00-1.396 1.273M8.98 6.632h2.041m0 0v1.633h.816v.972a3.878 3.878 0 11-5.069 1.273m0 0h-1.87v4.286h1.87m6.465-4.286h1.87v4.286h-1.87m-9.763 1.38h1.02a.408.408 0 00.408-.408V9.645a.408.408 0 00-.408-.408H3.47a.408.408 0 00-.408.408v6.123c0 .225.182.408.408.408zm12.04 0h1.02a.408.408 0 00.41-.408V9.645a.408.408 0 00-.41-.408h-1.02a.408.408 0 00-.408.408v6.123c0 .225.183.408.409.408z"/><path id="Rectangle 3" d="M10.205 15a2.449 2.449 0 01-2.45-2.45" stroke-linecap="round"/></g></g></svg>