<svg width="20" height="20" fill="none" xmlns="http://www.w3.org/2000/svg"><g id="Frame 41"><g id="Group 2"><path id="Rectangle 2" d="M6.94 6.633l-.06-.396a.4.4 0 00.06.796v-.4zm6.122.4a.4.4 0 000-.8v.8zM11.02 8.265h-.4v.4h.4v-.4zm-2.041 0v.4h.4v-.4h-.4zm-.816 0v-.4h-.4v.4h.4zm3.673 0h.4v-.4h-.4v.4zm-3.673.972l.19.352.21-.113v-.239h-.4zm3.673 0h-.4v.239l.21.113.19-.352zM4.898 10.51v-.4h-.4v.4h.4zm0 4.286h-.4v.4h.4v-.4zm10.204-4.286h.4v-.4h-.4v.4zm0 4.286v.4h.4v-.4h-.4zm-2.04-9.082l.059.396a.4.4 0 00-.02-.794l-.04.398zm-6.123-.612l-.027-.4A.4.4 0 006.9 5.5l.04-.398zm6.123-.408l.026.399a.4.4 0 00.026-.796l-.053.397zm-6.123-.817l-.013-.4a.4.4 0 00-.04.797l.053-.397zm6.136.196a.4.4 0 00-.027-.8l.027.8zM8.98 6.233H6.94v.8h2.04v-.8zm4.082 0H11.02v.8h2.04v-.8zm-2.441.4v1.632h.8V6.633h-.8zm-2.041 0v1.632h.8V6.633h-.8zm.4 1.232h-.816v.8h.816v-.8zm2.04.8h.817v-.8h-.816v.8zM9.593 6.233H8.98v.8h.612v-.8zm1.429 0h-.613v.8h.613v-.8zm-.613 0h-.816v.8h.816v-.8zm3.07 6.42A3.478 3.478 0 0110 16.13v.8a4.278 4.278 0 004.278-4.278h-.8zM10 16.13a3.478 3.478 0 01-3.477-3.478h-.8A4.278 4.278 0 0010 16.93v-.8zM7.764 8.265v.972h.8v-.972h-.8zm3.883 1.324a3.477 3.477 0 011.83 3.064h.8c0-1.63-.91-3.046-2.25-3.768l-.38.704zm-.21-1.324v.972h.8v-.972h-.8zm-4.914 4.388c0-.711.213-1.371.578-1.922l-.666-.442a4.26 4.26 0 00-.712 2.364h.8zM7.1 10.73c.317-.476.747-.87 1.252-1.142l-.38-.704a4.296 4.296 0 00-1.538 1.404l.666.442zm-.333-.62h-1.87v.8h1.87v-.8zm-2.27.4v2.142h.8V10.51h-.8zm2.27 3.885h-1.87v.8h1.87v-.8zm-1.47.4v-2.143h-.8v2.143h.8zm7.934-3.886h1.87v-.8h-1.87v.8zm1.47-.4v2.143h.8V10.51h-.8zm-1.47 4.686h1.87v-.8h-1.87v.8zm2.27-.4v-2.143h-.8v2.143h.8zM3.47 9.637h1.02v-.8H3.47v.8zm1.028.008v6.123h.8V9.645h-.8zm-.008 6.13H3.47v.8h1.02v-.8zm-1.028-.007V9.645h-.8v6.123h.8zm.008.008a.008.008 0 01-.008-.008h-.8c0 .446.361.808.808.808v-.8zm1.028-.008a.008.008 0 01-.008.008v.8a.808.808 0 00.808-.808h-.8zm-.008-6.13c.005 0 .008.003.008.007h.8a.808.808 0 00-.808-.808v.8zm-1.02-.8a.808.808 0 00-.808.807h.8c0-.004.003-.008.008-.008v-.8zm12.04.8h1.02v-.8h-1.02v.8zm1.03.007v6.123h.8V9.645h-.8zm-.01 6.13h-1.02v.8h1.02v-.8zm-1.028-.007V9.645h-.8v6.123h.8zm.008.008a.008.008 0 01-.008-.008h-.8c0 .446.362.808.809.808v-.8zm1.03-.008a.008.008 0 01-.01.008v.8a.808.808 0 00.81-.808h-.8zm-.01-6.13c.005 0 .01.003.01.007h.8a.808.808 0 00-.81-.808v.8zm-1.02-.8a.808.808 0 00-.808.807h.8c0-.004.004-.008.008-.008v-.8zm-8.512-1.81l6.123-.918-.119-.791-6.122.918.118.791zm6.103-1.712L6.98 4.704 6.9 5.5l6.123.612.08-.796zm-6.135.185l6.122-.408-.053-.798-6.123.408.054.798zm6.148-1.204l-6.122-.816-.106.793 6.123.816.105-.793zm-6.162-.02l6.123-.204-.027-.8-6.122.205.026.8z" fill="#506071"/><path id="Rectangle 3" d="M10.205 15a2.449 2.449 0 01-2.45-2.45" stroke="#506071" stroke-width=".8" stroke-linecap="round"/></g></g></svg>