<svg width="20" height="20" fill="none" xmlns="http://www.w3.org/2000/svg"><g id="Frame 42"><path id="Rectangle 2" d="M11.02 9.538h.817v.972m-.816-.972H8.98m2.04 0V8.114M8.98 9.538h-.816v.972m.816-.972V8.036m0 0a2.848 2.848 0 002.04.078m-2.04-.078a2.858 2.858 0 112.04.078m-.918-2.706l.46-.918.459-.919M6.768 10.51h-1.87v4.286h10.205V10.51H6.767zM3.47 16.176h1.02a.408.408 0 00.408-.408V9.645a.408.408 0 00-.408-.408H3.47a.408.408 0 00-.408.408v6.123c0 .225.182.408.408.408zm12.04 0h1.02a.408.408 0 00.41-.408V9.645a.408.408 0 00-.41-.408h-1.02a.408.408 0 00-.408.408v6.123c0 .225.183.408.409.408z" stroke="#506071" stroke-width=".8"/></g></svg>