<svg width="108" height="108" fill="none" xmlns="http://www.w3.org/2000/svg"><g id="svg_logo"><g id="Group 1"><path d="M74.411 9h-9.645c-2.877 2.898-7.346 8.973-10.763 17.146a66.442 66.442 0 00-2.358-5.058c-2.692 4.88-4.337 9.79-4.823 11.636.808 2.35 1.384 5.724 1.57 7.117h11.103c.987-10.303 7.14-20.862 10.094-24.854 3.589 4.331 10.766 17.33 10.766 34.682 0 20.245-10.392 35.323-15.589 40.331h9.645C79.608 84.766 90 69.055 90 49.444 90 29.832 79.608 14.233 74.411 9zM33.589 9h9.645l2.018 2.485c-1.084 1.394-3.521 4.723-4.598 6.892l-2.243-3.39c-3.589 4.331-10.766 17.33-10.766 34.682 0 20.245 10.392 35.323 15.589 40.331h-9.645C28.392 84.766 18 69.055 18 49.444 18 29.832 28.392 14.233 33.589 9z" id="Vector 2" fill="#00588A"/><path d="M58.71 9h-9.645c-4.315 4.346-12.212 15.838-14.768 30.841h9.595c1.95-12.364 7.122-21.387 9.996-24.854l2.243 3.277c1.973-3.164 3.962-5.837 4.71-6.779L58.71 9zM34.296 59.046C36.849 74.079 44.749 85.653 49.066 90h9.644c5.196-5.234 15.589-20.945 15.589-40.556 0-11.076-3.315-20.872-7.136-28.243-1.168 2.109-3.773 7.343-4.856 11.41a63.46 63.46 0 012.141 11.975H48.953c.15 1.581.359 5.739 0 9.715h15.52c-1.01 12.863-6.05 23.289-10.585 29.852-3.964-5.736-8.313-14.422-10.02-25.107h-9.572z" id="Vector 1" fill="#007932"/></g><path id="Vector" d="M18.225 93.6v2.25m0 0v2.25m0-2.25h3.364m0 0V93.6m0 2.25v2.25m2.243 0v-4.5h3.364v4.5m5.384 0v-4.5h-3.365v4.5m7.626 0v-4.5l2.13 3.825 2.356-3.825v4.5m1.57-2.362h3.813c0-.638-.404-1.913-2.019-1.913-1.345 0-1.757 1.275-1.794 1.913zm0 0c0 .712.359 2.137 1.794 2.137.374.038 1.256-.045 1.795-.675m.897 1.8v-1.35h.336M51.87 99v-1.35h-.673m0 0v-3.825h-2.692v2.25c0 .525-.157 1.575-.785 1.575m3.477 0H47.72m5.72-4.05v4.5l3.589-4.5v4.5m6.728-4.5v2.25m0 0v2.25m0-2.25h3.365m0 0V93.6m0 2.25v2.25m-5.383-2.362h-2.243c-.3.037-.897.27-.897.9 0 .787.448 1.237.897 1.237.448 0 1.346.113 2.243-.787m0-1.35v1.35m0-1.35v-1.013c0-.3-.27-.9-1.346-.9-1.077 0-1.495.3-1.57.45m2.916 2.813v.787m10.317-2.137h-2.243c-.299.037-.897.27-.897.9 0 .787.449 1.237.897 1.237.449 0 1.346.113 2.243-.787m0-1.35v1.35m0-1.35v-1.013c0-.3-.269-.9-1.345-.9-1.077 0-1.496.3-1.57.45m2.915 2.813v.787m1.346-2.137h2.243m.785-1.463c.15-.15.65-.45 1.458-.45 1.01 0 2.019.675 2.019 1.913m0 0c0 1.237-1.01 2.137-2.019 2.137-.808 0-1.308-.45-1.458-.675m3.477-1.462h-2.468M81.7 93.6v2.25m0 0v2.025m0-2.025h1.121m0 0l2.02-2.25m-2.02 2.25l2.02 2.025m2.915-4.05c1.794 0 2.019 1.575 2.019 2.025 0 .45-.449 1.913-2.019 1.913s-1.906-1.238-1.906-1.913.224-2.025 1.906-2.025z" stroke="#1D2935" stroke-width=".4" stroke-linejoin="bevel"/></g></svg>